<?xml version="1.0" standalone="no"?>
<!DOCTYPE svg PUBLIC "-//W3C//DTD SVG 20010904//EN"
 "http://www.w3.org/TR/2001/REC-SVG-20010904/DTD/svg10.dtd">
<svg version="1.0" xmlns="http://www.w3.org/2000/svg"
 width="32.000000pt" height="32.000000pt" viewBox="0 0 32.000000 32.000000"
 preserveAspectRatio="xMidYMid meet">

<g transform="translate(0.000000,32.000000) scale(0.100000,-0.100000)"
fill="#000000" stroke="none">
<path d="M66 285 c-8 -8 -26 -15 -40 -15 -49 0 -26 -20 24 -22 28 -1 58 -2 68
-2 11 -1 17 6 17 19 0 16 -6 19 -30 17 -23 -2 -27 -1 -15 7 9 7 10 11 3 11 -6
0 -18 -7 -27 -15z"/>
<path d="M100 210 c0 -5 10 -10 23 -10 18 0 19 2 7 10 -19 13 -30 13 -30 0z"/>
<path d="M307 185 c-13 -65 -26 -90 -39 -77 -7 7 -25 12 -40 12 -39 0 -37 30
3 54 17 10 29 19 27 21 -8 8 -87 -8 -82 -16 3 -5 1 -9 -5 -9 -5 0 -12 6 -14
13 -4 9 -8 9 -15 -1 -14 -20 8 -60 40 -74 15 -7 24 -16 22 -20 -3 -4 0 -8 6
-8 7 0 10 -14 8 -37 l-3 -38 53 -3 52 -2 0 44 c0 36 -3 44 -15 40 -12 -5 -12
-2 1 25 9 18 14 48 12 73 l-4 43 -7 -40z"/>
<path d="M0 76 l0 -39 50 7 c63 8 80 15 80 31 0 22 -23 33 -78 36 l-52 4 0
-39z"/>
<path d="M160 76 c0 -2 7 -7 16 -10 8 -3 12 -2 9 4 -6 10 -25 14 -25 6z"/>
<path d="M150 42 c0 -5 7 -9 15 -9 8 0 15 4 15 9 0 4 -7 8 -15 8 -8 0 -15 -4
-15 -8z"/>
<path d="M0 13 c0 -10 21 -13 93 -12 50 1 79 4 62 6 -148 19 -155 20 -155 6z"/>
</g>
</svg>
